<?xml version="1.0" standalone="no"?>
<!DOCTYPE svg PUBLIC "-//W3C//DTD SVG 20010904//EN"
 "http://www.w3.org/TR/2001/REC-SVG-20010904/DTD/svg10.dtd">
<svg version="1.0" xmlns="http://www.w3.org/2000/svg"
 width="972.000000pt" height="1006.000000pt" viewBox="0 0 972.000000 1006.000000"
 preserveAspectRatio="xMidYMid meet">

<g transform="translate(0.000000,1006.000000) scale(0.100000,-0.100000)"
fill="#000000" stroke="none">
<path d="M0 5030 l0 -5030 4860 0 4860 0 0 5030 0 5030 -4860 0 -4860 0 0
-5030z m5034 4141 c138 -82 382 -226 541 -321 160 -95 304 -180 320 -190 17
-9 53 -31 80 -48 28 -17 298 -179 600 -360 303 -181 701 -420 885 -532 295
-179 512 -310 598 -361 15 -9 97 -59 182 -110 l155 -94 3 -2181 2 -2181 -37
-25 c-21 -14 -92 -58 -158 -98 -66 -40 -181 -109 -255 -154 -437 -265 -590
-356 -595 -356 -3 0 -5 987 -5 2194 l0 2194 -107 65 c-60 35 -111 63 -115 60
-5 -2 -8 -1052 -8 -2332 l0 -2329 -137 -82 c-76 -45 -235 -140 -353 -210 -118
-71 -294 -176 -390 -233 l-175 -105 -5 2971 -5 2971 -120 73 c-65 40 -123 73
-127 73 -4 0 -8 -1406 -8 -3124 l0 -3125 -57 -32 c-48 -27 -452 -267 -503
-298 -79 -49 -478 -281 -483 -281 -4 0 -7 1962 -7 4361 0 4083 1 4361 17 4355
9 -4 129 -74 267 -155z m-1360 -6688 l-6 -962 -52 -33 c-28 -18 -78 -47 -111
-63 -33 -17 -63 -34 -67 -40 -4 -5 -8 1329 -8 2965 l0 2975 83 52 c45 28 100
61 122 72 l40 21 3 -2012 c2 -1107 0 -2446 -4 -2975z m-1317 1994 l-4 -2190
-29 -24 c-34 -27 -157 -93 -173 -93 -8 0 -11 599 -11 2190 l0 2190 68 44 c97
63 136 84 145 78 5 -2 7 -990 4 -2195z"/>
</g>
</svg>
