<svg width="256" height="256" viewBox="0 0 256 256" fill="none" xmlns="http://www.w3.org/2000/svg">
  <rect width="256" height="256" rx="64" fill="#0A0A0A"/>
  <rect x="30" y="30" width="196" height="196" rx="50" stroke="#2B2B2B" stroke-width="4"/>
  <path d="M84 60H100V196H84V60Z" fill="#F5F5F5"/>
  <path d="M112 60H148C178.928 60 198 77.488 198 106C198 134.512 178.928 152 148 152H128V196H112V60ZM128 76V136H147.04C168.28 136 182 124.4 182 106C182 87.6 168.28 76 147.04 76H128Z" fill="#F5F5F5"/>
  <path d="M136 116L186 196H167L117 116H136Z" fill="#8A8A8A"/>
</svg>
